<mxfile host="app.diagrams.net" agent="Mozilla/5.0 (Windows NT 10.0; Win64; x64; rv:138.0) Gecko/20100101 Firefox/138.0" version="27.0.9">
  <diagram name="1 oldal" id="hu_f3RejI3ZCI9Tlec1e">
    <mxGraphModel dx="1869" dy="563" grid="1" gridSize="10" guides="1" tooltips="1" connect="1" arrows="1" fold="1" page="1" pageScale="1" pageWidth="827" pageHeight="1169" math="0" shadow="0">
      <root>
        <mxCell id="0" />
        <mxCell id="1" parent="0" />
        <mxCell id="JF9zE5-YTk9ktqAE2DMC-2" value="&lt;b&gt;Tulajdonos&lt;/b&gt;" style="rounded=0;whiteSpace=wrap;html=1;" vertex="1" parent="1">
          <mxGeometry x="660" y="185" width="120" height="60" as="geometry" />
        </mxCell>
        <mxCell id="JF9zE5-YTk9ktqAE2DMC-3" value="&lt;b&gt;Auto&lt;/b&gt;" style="rounded=0;whiteSpace=wrap;html=1;" vertex="1" parent="1">
          <mxGeometry x="170" y="185" width="120" height="60" as="geometry" />
        </mxCell>
        <mxCell id="JF9zE5-YTk9ktqAE2DMC-4" value="Redszám" style="ellipse;whiteSpace=wrap;html=1;" vertex="1" parent="1">
          <mxGeometry x="-90" y="300" width="80" height="50" as="geometry" />
        </mxCell>
        <mxCell id="JF9zE5-YTk9ktqAE2DMC-5" value="Tipus" style="ellipse;whiteSpace=wrap;html=1;" vertex="1" parent="1">
          <mxGeometry y="300" width="80" height="50" as="geometry" />
        </mxCell>
        <mxCell id="JF9zE5-YTk9ktqAE2DMC-6" value="szín" style="ellipse;whiteSpace=wrap;html=1;" vertex="1" parent="1">
          <mxGeometry x="100" y="300" width="80" height="50" as="geometry" />
        </mxCell>
        <mxCell id="JF9zE5-YTk9ktqAE2DMC-7" value="kor" style="ellipse;whiteSpace=wrap;html=1;" vertex="1" parent="1">
          <mxGeometry x="280" y="300" width="80" height="50" as="geometry" />
        </mxCell>
        <mxCell id="JF9zE5-YTk9ktqAE2DMC-8" value="tulaj" style="ellipse;whiteSpace=wrap;html=1;" vertex="1" parent="1">
          <mxGeometry x="190" y="300" width="80" height="50" as="geometry" />
        </mxCell>
        <mxCell id="JF9zE5-YTk9ktqAE2DMC-9" value="ár" style="ellipse;whiteSpace=wrap;html=1;" vertex="1" parent="1">
          <mxGeometry x="374" y="300" width="80" height="50" as="geometry" />
        </mxCell>
        <mxCell id="JF9zE5-YTk9ktqAE2DMC-10" value="Tkod" style="ellipse;whiteSpace=wrap;html=1;" vertex="1" parent="1">
          <mxGeometry x="590" y="290" width="80" height="50" as="geometry" />
        </mxCell>
        <mxCell id="JF9zE5-YTk9ktqAE2DMC-11" value="Nev" style="ellipse;whiteSpace=wrap;html=1;" vertex="1" parent="1">
          <mxGeometry x="680" y="290" width="80" height="50" as="geometry" />
        </mxCell>
        <mxCell id="JF9zE5-YTk9ktqAE2DMC-12" value="Varos" style="ellipse;whiteSpace=wrap;html=1;" vertex="1" parent="1">
          <mxGeometry x="770" y="290" width="80" height="50" as="geometry" />
        </mxCell>
        <mxCell id="JF9zE5-YTk9ktqAE2DMC-13" value="" style="endArrow=none;html=1;rounded=0;entryX=0.5;entryY=1;entryDx=0;entryDy=0;" edge="1" parent="1" target="JF9zE5-YTk9ktqAE2DMC-3">
          <mxGeometry width="50" height="50" relative="1" as="geometry">
            <mxPoint x="320" y="300" as="sourcePoint" />
            <mxPoint x="330" y="245" as="targetPoint" />
          </mxGeometry>
        </mxCell>
        <mxCell id="JF9zE5-YTk9ktqAE2DMC-14" value="" style="endArrow=none;html=1;rounded=0;entryX=0.5;entryY=1;entryDx=0;entryDy=0;" edge="1" parent="1" target="JF9zE5-YTk9ktqAE2DMC-3">
          <mxGeometry width="50" height="50" relative="1" as="geometry">
            <mxPoint x="230" y="300" as="sourcePoint" />
            <mxPoint x="230" y="260" as="targetPoint" />
          </mxGeometry>
        </mxCell>
        <mxCell id="JF9zE5-YTk9ktqAE2DMC-15" value="" style="endArrow=none;html=1;rounded=0;entryX=0.5;entryY=1;entryDx=0;entryDy=0;" edge="1" parent="1" target="JF9zE5-YTk9ktqAE2DMC-3">
          <mxGeometry width="50" height="50" relative="1" as="geometry">
            <mxPoint x="140" y="300" as="sourcePoint" />
            <mxPoint x="210" y="270" as="targetPoint" />
          </mxGeometry>
        </mxCell>
        <mxCell id="JF9zE5-YTk9ktqAE2DMC-16" value="" style="endArrow=none;html=1;rounded=0;entryX=0.5;entryY=1;entryDx=0;entryDy=0;" edge="1" parent="1" target="JF9zE5-YTk9ktqAE2DMC-3">
          <mxGeometry width="50" height="50" relative="1" as="geometry">
            <mxPoint x="40" y="300" as="sourcePoint" />
            <mxPoint x="210" y="260" as="targetPoint" />
          </mxGeometry>
        </mxCell>
        <mxCell id="JF9zE5-YTk9ktqAE2DMC-17" value="" style="endArrow=none;html=1;rounded=0;entryX=0.5;entryY=1;entryDx=0;entryDy=0;" edge="1" parent="1" target="JF9zE5-YTk9ktqAE2DMC-3">
          <mxGeometry width="50" height="50" relative="1" as="geometry">
            <mxPoint x="-50" y="300" as="sourcePoint" />
            <mxPoint x="150" y="240" as="targetPoint" />
          </mxGeometry>
        </mxCell>
        <mxCell id="JF9zE5-YTk9ktqAE2DMC-18" value="" style="endArrow=none;html=1;rounded=0;exitX=0.5;exitY=0;exitDx=0;exitDy=0;entryX=0.5;entryY=1;entryDx=0;entryDy=0;" edge="1" parent="1" source="JF9zE5-YTk9ktqAE2DMC-9" target="JF9zE5-YTk9ktqAE2DMC-3">
          <mxGeometry width="50" height="50" relative="1" as="geometry">
            <mxPoint x="323" y="290" as="sourcePoint" />
            <mxPoint x="250" y="260" as="targetPoint" />
          </mxGeometry>
        </mxCell>
        <mxCell id="JF9zE5-YTk9ktqAE2DMC-19" value="" style="endArrow=none;html=1;rounded=0;exitX=0.5;exitY=0;exitDx=0;exitDy=0;entryX=0.5;entryY=1;entryDx=0;entryDy=0;" edge="1" parent="1" source="JF9zE5-YTk9ktqAE2DMC-11" target="JF9zE5-YTk9ktqAE2DMC-2">
          <mxGeometry width="50" height="50" relative="1" as="geometry">
            <mxPoint x="760" y="290" as="sourcePoint" />
            <mxPoint x="710" y="260" as="targetPoint" />
          </mxGeometry>
        </mxCell>
        <mxCell id="JF9zE5-YTk9ktqAE2DMC-20" value="" style="endArrow=none;html=1;rounded=0;exitX=0.5;exitY=0;exitDx=0;exitDy=0;entryX=0.5;entryY=1;entryDx=0;entryDy=0;" edge="1" parent="1" source="JF9zE5-YTk9ktqAE2DMC-10" target="JF9zE5-YTk9ktqAE2DMC-2">
          <mxGeometry width="50" height="50" relative="1" as="geometry">
            <mxPoint x="650" y="290" as="sourcePoint" />
            <mxPoint x="690" y="260" as="targetPoint" />
          </mxGeometry>
        </mxCell>
        <mxCell id="JF9zE5-YTk9ktqAE2DMC-21" value="" style="endArrow=none;html=1;rounded=0;exitX=0.5;exitY=0;exitDx=0;exitDy=0;exitPerimeter=0;entryX=0.5;entryY=1;entryDx=0;entryDy=0;" edge="1" parent="1" source="JF9zE5-YTk9ktqAE2DMC-12" target="JF9zE5-YTk9ktqAE2DMC-2">
          <mxGeometry width="50" height="50" relative="1" as="geometry">
            <mxPoint x="860" y="285" as="sourcePoint" />
            <mxPoint x="740" y="260" as="targetPoint" />
          </mxGeometry>
        </mxCell>
        <mxCell id="JF9zE5-YTk9ktqAE2DMC-22" value="&lt;b&gt;A-T&lt;/b&gt;" style="rhombus;whiteSpace=wrap;html=1;" vertex="1" parent="1">
          <mxGeometry x="440" y="175" width="80" height="80" as="geometry" />
        </mxCell>
        <mxCell id="JF9zE5-YTk9ktqAE2DMC-23" value="" style="endArrow=classic;html=1;rounded=0;entryX=1;entryY=0.5;entryDx=0;entryDy=0;" edge="1" parent="1" target="JF9zE5-YTk9ktqAE2DMC-3">
          <mxGeometry width="50" height="50" relative="1" as="geometry">
            <mxPoint x="440" y="215" as="sourcePoint" />
            <mxPoint x="480" y="160" as="targetPoint" />
          </mxGeometry>
        </mxCell>
        <mxCell id="JF9zE5-YTk9ktqAE2DMC-24" value="" style="endArrow=classic;html=1;rounded=0;entryX=0;entryY=0.5;entryDx=0;entryDy=0;exitX=1;exitY=0.5;exitDx=0;exitDy=0;" edge="1" parent="1" source="JF9zE5-YTk9ktqAE2DMC-22" target="JF9zE5-YTk9ktqAE2DMC-2">
          <mxGeometry width="50" height="50" relative="1" as="geometry">
            <mxPoint x="530" y="220" as="sourcePoint" />
            <mxPoint x="570" y="170" as="targetPoint" />
          </mxGeometry>
        </mxCell>
        <mxCell id="JF9zE5-YTk9ktqAE2DMC-25" value="" style="endArrow=classic;html=1;rounded=0;" edge="1" parent="1">
          <mxGeometry width="50" height="50" relative="1" as="geometry">
            <mxPoint x="440" y="214.5" as="sourcePoint" />
            <mxPoint x="300" y="215" as="targetPoint" />
          </mxGeometry>
        </mxCell>
      </root>
    </mxGraphModel>
  </diagram>
</mxfile>
